<svg xmlns="http://www.w3.org/2000/svg" width="271.000000ptpx" height="78.000000ptpx" viewBox="0 0 271.000000 78.000000" preserveAspectRatio="xMidYMid meet" transform="rotate(0) scale(1, 1)"><g transform="translate(0.000000,78.000000) scale(0.100000,-0.100000)" fill="#8e2424" stroke="none"><path d="M2105 698 c-28 -16 -35 -28 -35 -65 0 -22 7 -37 22 -47 48 -34 108 -7 108 48 0 18 -6 40 -12 49 -17 22 -59 29 -83 15z" fill="#8e2424"/><path d="M252 620 c-44 -66 -58 -112 -48 -163 l6 -32 -24 26 -23 27 -22 -44 c-43 -89 -17 -190 59 -233 59 -33 66 -25 21 24 -61 66 -57 108 20 192 22 24 39 48 39 54 0 7 8 5 20 -6 27 -25 25 -67 -5 -103 -37 -44 -30 -59 10 -21 19 19 35 40 35 47 0 12 3 12 15 2 24 -20 18 -51 -16 -79 -29 -24 -30 -28 -18 -54 11 -24 10 -31 -10 -58 l-23 -31 33 7 c99 22 149 117 115 214 -9 24 -34 72 -55 105 -21 34 -45 84 -55 111 -27 83 -29 83 -74 15z" fill="#8e2424"/><path d="M683 664 c-47 -23 -110 -96 -122 -140 -14 -51 -14 -127 1 -175 15 -52 73 -117 122 -140 71 -32 201 -22 249 19 14 12 17 32 17 114 l0 98 -60 0 -60 0 0 -75 0 -75 -39 0 c-71 0 -121 61 -121 148 0 122 135 185 228 107 l29 -24 15 50 c15 45 15 51 0 66 -29 29 -80 43 -154 43 -46 0 -85 -6 -105 -16z" fill="#8e2424"/><path d="M1689 666 c9 -10 11 -79 9 -245 l-3 -231 170 2 170 3 3 68 3 69 -23 -16 c-16 -12 -46 -16 -110 -16 l-88 0 0 163 c0 121 4 169 14 190 l15 27 -86 0 c-73 0 -84 -2 -74 -14z" fill="#8e2424"/><path d="M1070 531 c-53 -27 -80 -82 -80 -161 0 -79 27 -134 80 -161 65 -35 177 -18 208 31 11 18 8 26 -19 60 -31 38 -33 39 -46 20 -18 -26 -74 -27 -97 -1 -16 18 -14 18 51 24 59 4 71 9 95 36 40 45 38 93 -6 137 -31 31 -39 34 -93 34 -38 0 -71 -7 -93 -19z m110 -106 c0 -18 -10 -31 -32 -45 -42 -25 -48 -25 -48 3 0 34 28 67 56 67 19 0 24 -5 24 -25z" fill="#8e2424"/><path d="M1399 527 c-44 -29 -79 -98 -79 -157 0 -55 33 -125 73 -154 41 -30 154 -30 193 0 57 42 69 69 69 154 0 87 -13 116 -75 158 -46 31 -134 31 -181 -1z m129 -89 c30 -39 25 -120 -9 -139 -63 -33 -112 48 -74 121 12 23 23 30 44 30 16 0 33 -6 39 -12z" fill="#8e2424"/><path d="M2120 524 c-30 -13 -64 -24 -74 -24 -16 0 -15 -3 8 -25 27 -25 27 -26 24 -138 -2 -61 -7 -120 -12 -129 -7 -16 -1 -18 68 -18 73 0 76 1 66 19 -6 11 -10 89 -10 180 0 89 -3 160 -7 160 -5 -1 -33 -12 -63 -25z" fill="#8e2424"/><path d="M2309 527 c-44 -29 -79 -98 -79 -157 0 -55 33 -125 73 -154 41 -30 154 -30 193 0 57 42 69 69 69 154 0 87 -13 116 -75 158 -46 31 -134 31 -181 -1z m129 -89 c30 -39 25 -120 -9 -139 -63 -33 -112 48 -74 121 12 23 23 30 44 30 16 0 33 -6 39 -12z" fill="#8e2424"/></g></svg>